<svg id="Layer_1" data-name="Layer 1" xmlns="http://www.w3.org/2000/svg" viewBox="0 0 980.38 981.67"><defs><style>.cls-1{fill:#bababa;}.cls-2{fill:#16a086;}</style></defs><title>light-main-section-logo</title><path class="cls-1" d="M496.51,612.09l8-18.49Q543,504,581.57,414.39q32.8-76.41,65.68-152.81Q677.16,192,707.06,122.4q4.4-10.23,8.82-20.44c.35-.81.43-2,1.53-2.14h.21L759.05,3.67C750,2,740.82.87,731.61,0c-.3,0-.61.08-.92.08H657L654.81,0c-10.23,1.48-17.27,6.82-21.33,16.52-9.69,23.2-19.67,46.28-29.54,69.4q-35.6,83.39-71.18,166.85l-74,173.44-61.86,145q-31.23,73.21-62.45,146.43L272.25,863.5c-2.47,5.79-4.92,11.57-7.41,17.34-.43,1-.59,2.33-2.17,2.21-2.24-.17-4.51.23-6.72-.63a23.31,23.31,0,0,0-4.51-1,87.74,87.74,0,0,1-18.14-5c-18.3-7.34-31.23-20-38.3-38.48a88.94,88.94,0,0,1-5.48-32.14q-.06-94.68,0-189.35a259.5,259.5,0,0,0-1.82-32.38,172.17,172.17,0,0,0-10.13-41.27,125.47,125.47,0,0,0-33.17-48.59,8.11,8.11,0,0,1-2.31-2.43A6,6,0,0,1,143.8,490a119.87,119.87,0,0,0,30.25-39.48c8.84-18.37,13-37.9,14.77-58.07a.74.74,0,0,1-.19-1,.75.75,0,0,1,.25-.22c1-12.15.6-24.32.6-36.48q.06-89.25,0-178.51A98,98,0,0,1,192,153.79c5.47-23.28,19.28-39.43,41.55-48.27a102.19,102.19,0,0,1,20-5.22A23.44,23.44,0,0,0,273,77.58c.15-18.15.09-36.3,0-54.44C273,10.73,261.89-1,246.89.26c-4.51.36-9,1-13.5,1.56a202.58,202.58,0,0,0-49,12.4C153.68,26.4,128.86,45.88,111,73.85c-13.41,21-20.78,44.2-24.37,68.72-2.09,14.33-2.53,28.72-2.51,43.17q.09,89.1,0,178.19a99.05,99.05,0,0,1-1.72,19.37c-4.11,21.06-15.67,36.64-34.83,46.49-8.72,4.47-18.06,6.84-27.67,8.43C8.86,440.06,1.39,449.3.47,457.7c.29,2.15-.43,4.23-.42,6.4.09,14.93,0,29.87,0,44.8v13.59l.2,2.25a2.81,2.81,0,0,1,.27.55c2.78,10.87,9.79,17,20.79,18.86a90.69,90.69,0,0,1,23.37,6.79c16.17,7.44,27.92,19.14,34.34,35.9,3.77,9.85,5.13,20.14,5.14,30.61V801.22c0,9.38.29,18.74,1.22,28.09a201.84,201.84,0,0,0,8.21,41.44c13.35,42.12,39.78,73,79.57,92.32,22.34,10.84,46.19,16.12,70.77,18.52h76.53c1.75,0,3.5,0,5.25.08a22.33,22.33,0,0,0,17.89-14l48.48-112.73-.33-.14Z" transform="translate(-0.05)"/><path class="cls-2" d="M723.05,99.57a139.75,139.75,0,0,1,18.1,3.86c24.43,7.63,40.51,23.36,47.1,48.36,2.31,8.73,2.91,17.66,2.91,26.66V366.27c0,9.59.17,19.16,1,28.73a182.13,182.13,0,0,0,6.47,35.5c6.83,23.25,18.5,43.55,36.67,59.86a3.29,3.29,0,0,1,1.15,1.43,7.26,7.26,0,0,1-2,2.27,124.52,124.52,0,0,0-24.88,33.3c-11.5,22.31-16.35,46.29-17.88,71.11a.7.7,0,0,1,.3.93h0a.65.65,0,0,1-.29.3c-.15,4.63-.43,9.27-.43,13.9V803.23a103.94,103.94,0,0,1-2.68,25.71C783,850.94,770,866.76,749,875.78c-7.15,3.07-14.7,4.61-22.29,6.13a23.7,23.7,0,0,0-19.1,23.45v52.58a22.07,22.07,0,0,0,1,6.7c2.9,9.32,9.28,14.82,18.72,16.91h9.31c4.8-.6,9.61-1.12,14.4-1.81a195.22,195.22,0,0,0,52.73-14.93c33.16-15,58.28-38.41,74.36-71.19,11.57-23.6,16.61-48.81,18.13-74.86a.71.71,0,0,1,0-1.24c.15-4.33.42-8.66.42-13V621.94a103.21,103.21,0,0,1,2-22.73c4.11-18.35,14-32.56,30.22-42.26,9.52-5.7,19.92-8.88,30.81-10.52,13.45-2,20.62-13,20.76-21.64,0-1.13-.12-2.26-.12-3.39V469c0-4.11.06-8.22.09-12.33-.4-8.35-7.28-18.83-20-21-3.25-.56-6.5-1.13-9.7-1.91-12.1-2.95-23.13-8.09-32.44-16.53-14.12-12.79-20.21-29.21-21.46-47.79a.73.73,0,0,1-.23-1,.63.63,0,0,1,.23-.23c0-3.09-.14-6.18-.14-9.27V194.56c0-10,.16-20-.44-30a.69.69,0,0,1-.35-.9h0a.65.65,0,0,1,.29-.32c-.37-4.21-.7-8.42-1.11-12.62a193.47,193.47,0,0,0-8.76-41.62c-9.47-29.16-26-53.55-50.33-72.54-18.67-14.43-39.7-23.77-62.4-29.71C768.77,5.6,764,4.56,759,3.67L717.57,99.79A19.36,19.36,0,0,1,723.05,99.57Z" transform="translate(-0.05)"/></svg>