<svg id="Layer_1" data-name="Layer 1" xmlns="http://www.w3.org/2000/svg" viewBox="0 0 585.21 585.97"><defs><style>.cls-1{fill:#16a086;}</style></defs><title>logo-stamp</title><path class="cls-1" d="M305.17,7.07C147.57,4.07,18.24,125.6,8.08,279.22-3.54,454.79,134,589.78,294.12,592.93,463.65,596.25,594.62,457,592.47,302.77,597.3,155.48,477.9,10.36,305.17,7.07Zm2.09,571.13C151.6,582,26.77,459.16,22,309.12,17,150.84,144,21.45,300.19,21.61,448.61,21.13,575,139.84,578.49,293.7,582,448,460,574.44,307.26,578.2Z" transform="translate(-7.39 -7.02)"/><path class="cls-1" d="M363.53,200.84c9.36,2.28,14.53,9.12,14.42,19.23q-.27,25.45-.43,50.9c-.06,10.57,2,20.48,9.72,28.4,1.25,1.29,1.25,2.12,0,3.41-6.73,6.78-9.59,15.34-9.89,24.57-.56,17.36-.75,34.75-.79,52.12,0,11.21-4.94,19.3-16.34,21.15-3.49.57-5.29,2.91-5.4,6.41-.14,4-.33,8.07-.19,12.09.19,5.49,2.85,7.68,8.37,7.27,24.11-1.81,39.79-17.91,40.51-42,.47-16,.84-32,.63-48-.16-11.55,5.23-19.28,16.34-20.95,3.63-.54,5.44-3,5.41-6.77,0-4.86,0-9.73.19-14.59.15-4.17-1.77-6.37-5.77-7.37-11.47-2.87-15.55-8.53-15.42-20.27.2-16.69.53-33.39.14-50.06-.49-21.12-12.62-35.57-33.08-40.45-9.47-2.26-19.11-1.1-28.67-1.35-3.12-.08-4.65,2.53-5.83,5.23q-34.23,78.3-68.5,156.57-13.11,30-26.19,60c-.75,1.71-1.14,3.64-4,3.19-9.32-1.45-15.91-8-16-17.43-.21-17.37.16-34.75.17-52.13,0-10.85-2.14-21-10.12-29.13-1-1-1.43-1.68-.07-3,9.06-8.49,10.87-19.57,11-31.27.1-16.4,0-32.81.59-49.2.36-10.6,5.3-15.71,15.8-17.95,3.9-.83,5.7-3.07,5.65-7,0-3.34,0-6.68,0-10,0-7.59-2.37-9.67-9.9-8.69-23.4,3.05-36.86,16.79-38.69,40.27-1.29,16.64-.55,33.36-.73,50-.14,12.76-3.9,17.85-16.24,20.93-3.66.91-5.5,3-5.55,6.72-.05,4-.06,8.06-.12,12.09-.09,6.3.76,7.44,6.8,9,9.57,2.44,14.3,8.42,14.35,18.28,0,8.63,0,17.25,0,25.87h-.43c0,7.65.1,15.29,0,22.94-.35,22.35,11.27,38.41,31.75,43.76,9.71,2.54,19.63,1.58,29.47,1.74,2.5,0,4.37-1.56,5.41-4,1.72-4,3.52-7.86,5.26-11.8q45.39-103,90.72-206C359.09,200.66,360.63,200.14,363.53,200.84Z" transform="translate(-7.39 -7.02)"/><path class="cls-1" d="M194.52,71.31c2.22-1.29,3-.19,3.73,1.91q4.06,11.6,8.49,23.07c.91,2.37.6,3.69-2,4.19-2.85.55-3.08,2.21-2,4.56a32.11,32.11,0,0,1,1.54,4.32c.59,2,1.57,2.54,3.68,1.7,5.15-2.06,10.39-3.89,15.61-5.79,6.48-2.35,6.35-2.29,4.11-8.71-1-2.9-2.23-4.28-5.25-2.58-1.68.94-3,.7-3.36-1.36-.3-1.58-2.48-3.34-.08-4.74,2-1.16,4.13-2.2,6.38.13s5.15,3.92,7.17,6.34c4.13,4.94,8.47,5.35,14.18,2.68,6.32-3,6.32-2.49,4.18-9-1-3-2-4.16-5.18-2.56-2.15,1.09-11-4.38-11.09-6.69,0-.71.67-1.47,1.13-2.14a18.12,18.12,0,0,0,3-8.64,16.38,16.38,0,0,0-14.37-16.2,26.85,26.85,0,0,0-11.92,1.33c-6.28,2.26-12.57,4.46-18.84,6.76-6.58,2.41-6.46,2.41-4.2,9C190.44,71.61,191.59,73,194.52,71.31ZM210,67c1.87-3.82,6.24-3.07,9.05-4.1,4.32,0,6.79,2.47,6.82,6.26s-6.24,8.63-10.89,8.52C213.83,77.62,209.08,68.74,210,67Z" transform="translate(-7.39 -7.02)"/><path class="cls-1" d="M442.83,507.42c-2.11,1.72-3.07.42-4.09-1.38-4-7.13-8.1-14.26-12.3-21.3-1.15-1.93-1.43-3.28,1-4.14,3.18-1.14,3.18-2.94,1.29-5.33a11.64,11.64,0,0,1-1.65-2.89c-1.12-2.81-2.68-2.8-5.09-1.35-7,4.22-14.19,8.21-21.26,12.36a26,26,0,0,0-9.11,8.41c-5.37,8.56-.87,19.07,9.05,20.84,2.38.42,2.75,1,2.16,3.41-2.05,8.55,4,16,12.75,16.08a24.9,24.9,0,0,0,12.69-3.62c5.8-3.3,11.54-6.7,17.33-10,6.12-3.5,6-3.41,2.65-9.57C446.78,506.29,445.35,505.35,442.83,507.42Zm-35.6-4.36a4.73,4.73,0,0,1-4.36-2.66,4.29,4.29,0,0,1,.55-5c2.46-2.94,6-4.33,9.18-6.22,1.06-.63,1.68.1,2.34,1,5,6.56,4.76,7.47-2.63,11.34A15.94,15.94,0,0,1,407.23,503.06Zm16.19,15.71a11.68,11.68,0,0,1-4.68,1.59,4.4,4.4,0,0,1-3.86-7c2.13-2.91,5.45-4.2,8.42-5.95.94-.55,1.43.07,2,.75C430,513.58,429.69,515.3,423.42,518.77Z" transform="translate(-7.39 -7.02)"/><path class="cls-1" d="M404.89,117.36c7.11,5.12,13.95,10.64,21.31,15.36,8,5.13,16.79,7.19,25.64,2.1,9.39-5.41,14.61-13.77,15.58-23.15.12-8.76-3.49-16-10.43-21.49-5.55-4.42-11.31-8.56-17-12.75s-5.69-4.11-10.14,1.48c-2.06,2.58-1.64,4,1,5.43,1.59.86,2.19,1.85.87,3.6-5.29,7-10.49,14-15.68,21.09-.89,1.22-1.81,1.79-3,.53-3.08-3.29-5-1.8-6.72,1.44a12.64,12.64,0,0,1-2,2.68C402.86,115.22,403.36,116.26,404.89,117.36Zm21.59-.75c5.19-7,10.33-14.06,15.53-21.08.54-.72,1-1.58,2.32-1.2,4.51,1.3,10.58,9.23,10.54,15.17a19.8,19.8,0,0,1-11.27,15.08c-6.82,3.17-11.87-1.12-16.93-4.87C425.25,118.66,425.63,117.76,426.48,116.61Z" transform="translate(-7.39 -7.02)"/><path class="cls-1" d="M213.24,491.56c-7.72-4.42-15.16-9.36-23.1-13.34-18.3-9.19-38.61,3.95-38.45,24.58.09,9.4,5,16,12.46,20.93,5.91,3.9,12.11,7.36,18.17,11s6,3.65,9.87-2.46c1.44-2.27,2-3.83-1-5-2.3-.91-2.61-2.21-1.19-4.46,4.36-6.93,8.55-14,12.63-21.08,1.24-2.16,2.37-2.83,4.38-1.09,2.41,2.08,3.89,1,5-1.46a22.68,22.68,0,0,1,2.06-3.62C215.26,493.88,215.21,492.69,213.24,491.56Zm-21.13,2.57q-6.83,11.42-13.67,22.82c-.51.85-.95,1.59-2.24,1.32-5.43-1.12-11.88-8.87-11.7-15.34a20.56,20.56,0,0,1,9.37-14.72c4.51-2.9,15.32-.53,18.41,3.68C192.93,492.78,192.53,493.43,192.11,494.13Z" transform="translate(-7.39 -7.02)"/><path class="cls-1" d="M336.47,553c.06-2.29-.75-3.49-3.12-3-3.05.64-3.84-.88-3.92-3.56-.25-8.18-.52-16.36-1-24.54-.12-2.28.59-3.07,2.77-2.75,3.21.46,4.18-1.13,3.79-4.08a34,34,0,0,1-.15-4.16c0-2-.49-3-2.91-2.84-8.72.52-17.49.49-26.19,1.21-13.16,1.09-21.36,9-23.2,21.57-2.44,16.75,6.83,29.16,23.2,30.68,4.53.42,9.14.07,13.72.07V561c3.19,0,6.38.09,9.56,0C338.5,560.7,336.25,561.6,336.47,553Zm-22.55-2.23c-16.46,1.46-20.42-8.79-17.7-21.77,1.4-6.67,12.3-11.64,18.36-9.1,1.26.52,1.08,1.44,1.08,2.37,0,4.3,0,8.6,0,12.9h1c0,4.16-.07,8.33,0,12.49C316.75,549.72,316.09,550.57,313.92,550.77Z" transform="translate(-7.39 -7.02)"/><path class="cls-1" d="M499.51,464.22c-4.67-3.88-4.52-4.06-9.2-.85-3.57-7.71-7.13-15.37-10.67-23-.76-1.64-1.39-3.34-2.27-4.91-1-1.85.1-2.94,1.28-3.89,2.25-1.82,1.81-3.34-.21-4.95a21.05,21.05,0,0,1-3-2.87c-1.84-2.25-3.27-1.62-4.94.28-3.13,3.54-6.4,6.95-9.64,10.38-5.26,5.57-5.23,5.5.68,10.7,1.6,1.4,2.77,2.24,4.31.06.47-.66,1.08-2,2.23-.95a2,2,0,0,1,.05,3.23c-3.37,3.51-6.66,7.08-10,10.61a2.05,2.05,0,0,1-3,.21c-1.18-1,.06-1.82.63-2.35,1.84-1.67,1.47-2.95-.32-4.32a18.61,18.61,0,0,1-3-2.85c-1.83-2.28-3.27-2.19-5.19.07-3.06,3.58-6.41,6.92-9.68,10.33-5.74,6-5.7,5.93.41,11.39,1.69,1.52,3,1.83,4.28-.2,1.61-2.5,3.5-2.22,6-1.22,11.84,4.75,23.8,9.22,35.65,14,2.19.87,3.51.55,5-1.14,3.51-3.93,7-7.88,10.83-11.53C502.23,468,502.24,466.5,499.51,464.22Zm-29.78.13c-1.21-.48-1.47-1.19-.49-2.16,1.57-1.56,3-4.21,4.74-4.39,1.94-.21,2,3.11,3.12,4.79a54.21,54.21,0,0,1,2.67,5.76Z" transform="translate(-7.39 -7.02)"/><path class="cls-1" d="M342.57,93.63c4.4,1.27,8.7,2.88,13,4.34,8,2.7,7.94,2.68,10.35-5.32.55-1.81.61-2.76-1.43-3.43-.8-.26-3.1.14-2.16-2,.73-1.68,2.24-1.26,3.61-.79,3.95,1.34,7.9,2.67,11.84,4,1.43.5,3.32.91,2.63,3s-2.09.16-3.12.26c-1.62-.67-2.33.15-2.78,1.55-.6,1.85-1.18,3.71-1.92,5.51-.81,2-.28,3,1.81,3.65,4.77,1.49,9.44,3.28,14.21,4.76,8.69,2.7,6.61,4.11,10-5,.77-2.11.76-3.52-1.83-3.85-3-.39-3.47-2.24-3.6-5-.61-12.62-1.52-25.23-2.16-37.86-.13-2.62-1-4-3.6-4.66-4-1.09-7.9-2.61-11.86-3.92-7-2.31-6.89-2.28-9.2,4.93-.66,2.07-.75,3.47,1.74,4s2.19,1.78.75,3.43C362.9,68.11,357,75,351.18,81.85c-1.15,1.34-2.37,2.6-4.23,1.54-3.46-2-4.63-.11-5.3,2.9a13.81,13.81,0,0,1-1,3.17C339.49,91.74,340,92.89,342.57,93.63Zm31.75-20.82c1.43-1.66,2.85-3.33,4.27-5l1,.24c.11,2.44.08,4.89.35,7.31.4,3.51-.62,4.36-4.06,3C371.05,76.52,371,76.72,374.32,72.81Z" transform="translate(-7.39 -7.02)"/><path class="cls-1" d="M155.68,462.8a13.37,13.37,0,0,1,2.43-2.27c3.22-2,2.41-3.74.17-6.09-7.08-7.45-14-15.07-20.91-22.67-6.29-6.91-6.26-6.94-13-.74-7,6.38-6.93,6.34-.58,13.15,1.41,1.5,2.57,2.16,4,.32,2.55-3.32,4.73-3,6.87.43a11.61,11.61,0,0,0,2.52,2.76c2.57,2.08,2.41,3.62-.22,5.76-4.71,3.84-4.57,4-8.7-.46q-1.56-1.68-3.1-3.38c-5.54-6.09-5.49-6-11.33-.34-1.51,1.49-1.84,2.47-.19,4,2.1,2,4,4.25,6,6.4,5,5.46,4.84,5.3-.66,10.18-2.6,2.31-3.73.19-4.35-1.2-1.24-2.74-7.51-3.67-4-7.79,2.56-3,2.62-4.54,0-6.9a32,32,0,0,1-3.4-3.67c-1.16-1.44-2.16-1.33-3.43-.12-3.23,3.06-6.49,6.08-9.82,9-1.39,1.24-1.21,2.15,0,3.43,8.88,9.58,17.7,19.22,26.55,28.82a2.82,2.82,0,0,0,2.31,1.37,42.25,42.25,0,0,1,4.12-3.73c2.86-2,3.58-4,.46-6.38-1.91-1.47-.69-2.46.56-3.58,6.08-5.5,12.21-10.95,18.09-16.66,2.05-2,3.4-2,4.85.25C152.47,465.35,154,464.53,155.68,462.8Z" transform="translate(-7.39 -7.02)"/><path class="cls-1" d="M136.32,108.83c2.22-2.4,3.73-1.61,5.44.85q6.66,9.58,13.76,18.85c1.78,2.31,1.8,3.71-.77,5.19-1,.6-2.89,1.18-1.51,3.09s2.95,4,4.42,6.05c.84,1.15,1.72,1.1,2.83.29q16.11-11.85,32.27-23.65c1.12-.82,1.87-1.65.81-3.06-2.91-3.89-5.79-7.81-8.69-11.71-.52-.71-1.11-1.33-2-.66-2.6,1.86-5.21,3.71-7.74,5.65-1,.8-.56,1.89.16,2.54,4,3.56,1.63,5.46-1.62,7.66-5.83,4-5.61,4-9.8-1.62-1.65-2.22-1.07-3.17.89-4.48,3.11-2.08,5.94-4.62,9.14-6.55,2.95-1.77,2.9-3.21.88-5.81-4.19-5.4-4-5.52-9.58-1.56-1.58,1.14-3.13,2.31-4.69,3.47-4.81,3.57-4.62,3.42-8.3-1.09-2.17-2.66-2-4.17.94-5.77a29.49,29.49,0,0,0,4.37-3.2c1.58-1.31,2.93-1.55,3.94.55,1.72,3.56,3.81,3.11,6.33.81,1.43-1.3,3.11-2.33,4.66-3.5.53-.39,1.21-.71,1-1.68l-1.18-1.61c-2.38-3.25-4.9-6.41-7.1-9.77-1.46-2.23-2.6-2.15-4.61-.65-8.91,6.64-17.95,13.11-26.91,19.68-6.31,4.63-6.24,4.61-1.47,11C133.48,109.88,134.54,110.76,136.32,108.83Z" transform="translate(-7.39 -7.02)"/><path class="cls-1" d="M560.69,267.87c-.52-7-.66-6.93-7.88-6.52-2.35.13-3.86.62-3.23,3.35.73,3.14-1.07,3.7-3.62,3.84-7.62.4-15.26.73-22.85,1.47-3.13.3-4.87-.07-4.51-3.64.2-1.94-.69-2.82-2.68-2.61a18.78,18.78,0,0,1-3.74.16c-4-.4-4.75,1.63-4.45,5.19.81,9.82,1.3,19.67,2,29.5s.72,9.89,10.45,9.43c9-.43,9.9-1.79,7.84-10.67-.39-1.66-1.25-2.14-2.58-1.83-4.79,1.1-5.27-1.47-5.37-5.38-.19-7.22-.41-7.08,6.43-7.66,2.86-.25,3.62.76,3.66,3.43.07,4.16.58,8.31.73,12.47.07,1.77.7,2.38,2.47,2.45,8.22.37,8.68-.05,8.1-8.11,0-.55-.1-1.11-.15-1.66a33,33,0,0,0-.31-4.57c-.75-3.78.77-4.87,4.5-5.25,4.35-.45,5.72,1.1,5.51,5.08a27.92,27.92,0,0,0,.19,4.57c.22,1.93-.47,3-2.46,2.83-4-.38-4.72,1.7-4.18,5a33.29,33.29,0,0,1,.46,5c0,1.79.77,2.48,2.54,2.34,4.15-.32,8.31-.63,12.46-.82,2.24-.11,3.11-.88,2.93-3.32C562.1,290.6,561.54,279.22,560.69,267.87Z" transform="translate(-7.39 -7.02)"/><path class="cls-1" d="M56.44,363.12c-1.29-3.3.39-4.33,3.38-4.8,7.68-1.2,15.36-2.46,23-4,2.79-.56,3.89.21,4.09,2.89.13,1.61.47,3.16,2.73,2.73s4.37-.86,6.56-1.18c1.77-.25,1.83-1.27,1.57-2.69q-3.47-19.47-6.88-39c-.32-1.87-1-2.61-3-2.19-4.21.87-8.45,1.62-12.69,2.31-1.84.3-3,1.12-2.32,3,1.16,3.05-.47,7,3.06,9.25.27.17.83,0,1.21-.15,4.17-1.67,5.29.65,5.62,4.19a31.48,31.48,0,0,0,.82,4.5c.54,2.23-.15,3.15-2.54,3.6-6.91,1.29-6.88,1.42-8.22-5.58-.24-1.22-.47-2.45-.67-3.69-1.25-8.1-1.24-8-9-6.58-2.31.42-3.08,1.31-2.6,3.61.74,3.53,1,7.17,2,10.63,1.15,4.09-.45,5.13-4.26,5.76s-5.53.27-5.53-3.88a18.28,18.28,0,0,0-1-5.3c-.65-2.11.2-2.81,2.13-2.84,4.13-.06,4.76-2.21,3.56-5.69a21.24,21.24,0,0,1-.81-4.5c-.22-1.92-1.07-2.57-3-2.17-3.81.77-7.64,1.43-11.5,1.93-2.78.36-3.64,1.38-3.07,4.36,2.08,10.76,3.84,21.58,5.74,32.38,1.45,8.26,1.48,8.24,9.73,6.13C56.25,365.75,57.21,365.1,56.44,363.12Z" transform="translate(-7.39 -7.02)"/><path class="cls-1" d="M81.75,241.22c15.21,0,27.12-12.79,27.05-29-.07-14.43-12.85-26.34-28.33-26.41-14.91-.07-27,12.77-27,28.59C53.53,229.21,66.19,241.23,81.75,241.22ZM79.51,198.8c9.73.21,17.78,7.24,17.58,15.35s-6.42,14.35-14.4,14.13c-9.62-.26-17.75-7.39-17.59-15.42C65.26,204.67,71.45,198.63,79.51,198.8Z" transform="translate(-7.39 -7.02)"/><path class="cls-1" d="M86.19,159.92c2.22,1.88,3.62,2.05,5.17-.51.9-1.49,1.81-2.68,3.86-1,6.66,5.46,13.45,10.78,20.26,16.06,1.57,1.22,1.93,2.39.46,3.69-2.93,2.58-1.81,4.29,1,5.92a13.45,13.45,0,0,1,2.92,2.35c1.56,1.63,2.63,1.3,3.94-.41,4.5-5.84,9.14-11.56,13.68-17.37.56-.72,1.88-1.75,1.21-2.4a34.59,34.59,0,0,0-7.34-6c-1.85-1-2.46,1.71-3.4,2.86-1.52,1.87-2.57,2.8-5,.9s-1.54-3-.16-4.68a31.57,31.57,0,0,0,6.4-11.14c3.23-11.14-4.66-22.13-17.44-22.19-5.65,0-10.8,3.89-15.13,9-3.93,4.68-7.59,9.59-11.41,14.36C80.48,155.29,80.56,155.16,86.19,159.92Zm25.13-21.52A7,7,0,0,1,118,145c0,2.53-4.71,9.8-6.29,9.78-.93,0-9.92-7.75-9.85-8.47C102.1,143.82,108.63,138.34,111.32,138.4Z" transform="translate(-7.39 -7.02)"/><path class="cls-1" d="M87.28,428.4c8.35-8.92,16.24-18.29,24.93-26.86,4.51-4.47.78-7.26-.39-10.9-1.27-3.93-4-3.36-7-3.08-12.17,1.13-24.34,2.15-36.51,3.26-1.95.18-3.64.12-4.29-2.15-.9-3.21-2.69-3.34-5.22-1.66a25.21,25.21,0,0,1-4.09,2.05c-1.86.8-1.94,1.81-1,3.56,2.39,4.55,4.54,9.22,6.82,13.82,3.32,6.71,3.3,6.62,10,3.44,2.29-1.09,3.43-2.14,1.75-4.61-.93-1.36-.52-2.36,1.23-2.55l21.36-2.26c.18.31.36.62.55.93-5.13,5.35-10.22,10.73-15.4,16-1.39,1.42-2-.14-2.3-1.05-1-2.94-2.73-2.53-4.79-1.33a16,16,0,0,1-3,1.55c-3,.95-3.48,2.45-1.91,5.24,2.37,4.24,4.35,8.69,6.51,13,3.49,7.06,3.46,7,10.58,3.28,2-1.05,2.87-2.07,1.34-4.05C84.85,431.93,85.49,430.31,87.28,428.4Z" transform="translate(-7.39 -7.02)"/><path class="cls-1" d="M515.51,176.16c-7.44,3.74-14.95,7.38-22.35,11.2-2,1-3.29.6-3.88-1.34-1-3.35-2.83-3.18-5.25-1.59a11.78,11.78,0,0,1-2.63,1.26c-3.11,1.07-3.41,2.7-1.88,5.6,4.61,8.72,8.9,17.6,13.36,26.4,1.5,3,2.5,7.34,4.89,8.38,2.79,1.21,6.12-2.24,9.18-3.73,8.19-4,8.11-4,3.41-12.09-1.05-1.8-2.06-2.61-3.83-1.23-3.8,3-5.73,1.24-7-2.58a18,18,0,0,0-1.86-3.72c-1.2-1.83-.81-2.85,1.17-3.82,7.62-3.7,15.19-7.52,22.73-11.38,2-1,3.27-.55,3.82,1.46,1.24,4.58,3.75,4.26,6.94,2a12,12,0,0,1,2.61-1.29c2.1-.8,2.2-2,1.22-3.88-3.32-6.42-6.47-12.92-9.71-19.37-.48-.94-.9-2.46-2.29-1.89-2.69,1.09-5.58,2.11-7.77,3.91-1.79,1.48.88,3.09,1.2,4.74a7.43,7.43,0,0,0,.24.82C517.71,175.47,516.44,175.69,515.51,176.16Z" transform="translate(-7.39 -7.02)"/><path class="cls-1" d="M46.21,298.14c1.63-.08,2.4-.66,2.29-2.17-.29-4.08,1.93-4.66,4.43-4,8.39.82,16,1.64,23.61,2.26,2.52.2,3.55,1.12,2.93,3.63s.25,3.69,2.9,3.54a8.82,8.82,0,0,1,2.9.25c3.76,1.05,5-.3,5.27-4.19.58-9.57,1.58-19.11,2.51-28.66,1.06-10.85,1.1-10.84-9.76-11.64-8.67-.65-8.58-.64-8.9,8.37-.09,2.4.59,3.42,2.94,3.23,4.27-.34,5.28,1.75,4.32,5.54a15.12,15.12,0,0,0-.39,4.14c.06,2.29-.74,3.21-3.17,3-8.29-.87-16.59-1.67-24.9-2.29-2.35-.18-3.42-1-2.83-3.27,1.2-4.56-1.15-5.6-5-5.39a14.28,14.28,0,0,1-2.91-.23c-1.85-.29-2.75.17-2.89,2.32-.38,5.82-1.09,11.62-1.55,17.43C37.39,297.71,38.32,298.52,46.21,298.14Z" transform="translate(-7.39 -7.02)"/><path class="cls-1" d="M553.86,329.29c-2.38-.49-4.14-.54-4.18,2.52s-1.54,3.33-4.07,2.82c-7.76-1.57-15.53-3.07-23.32-4.42-2.64-.45-4.11-1.16-3.06-4.21.49-1.42.68-3.11-1.58-3.5s-4.37-.76-7.28-1.28c-1.7-.48-1.65,1.3-1.94,2.82-1.89,10.1-3.81,20.18-5.69,30.28-.58,3.12-2.37,7-1.2,9.21,1.42,2.7,6,1.88,9.16,2.55,9.33,2,9.28,1.89,10.45-7.45.27-2.17-.27-3.15-2.45-3.23-4-.15-5.37-2-3.91-5.87a15.41,15.41,0,0,0,.87-4.48c.15-2.51,1.36-2.87,3.58-2.42,7.89,1.6,15.78,3.18,23.72,4.49,2.9.48,3.93,1.6,3,4.35-1.12,3.27-.06,4.9,3.46,5a16.7,16.7,0,0,1,3.68.69c2,.53,3,0,3.34-2.28.92-5.75,2.09-11.47,3.15-17.2C560.89,330.64,560.87,330.72,553.86,329.29Z" transform="translate(-7.39 -7.02)"/><path class="cls-1" d="M487.61,137.67c-6.53,5.15-12.94,10.46-19.3,15.83-1.74,1.46-3,1.31-4-.54-1.63-3-3.34-2.58-5.39-.43a23.59,23.59,0,0,1-3.53,2.9c-1.57,1.12-1.74,2.06-.39,3.64,4.49,5.29,8.81,10.72,13.21,16.08.6.73,1.12,1.63,2.53,1.59,1.25-1,2.58-2.22,4.07-3.22,2.82-1.89,4.3-3.83.93-6.58-1.58-1.29-.81-2.23.47-3.27,6.69-5.4,13.38-10.81,19.95-16.36,1.82-1.54,3-1.08,4,.62,1.72,3,3.44,2.45,5.44.3a19.9,19.9,0,0,1,3.23-2.62c1.77-1.25,1.79-2.42.37-4.07-3.52-4.11-6.86-8.37-10.33-12.52-4.59-5.48-4.55-5.39-10.12-1-2,1.61-3.34,2.87-.77,5.06C489.86,134.69,489.69,136,487.61,137.67Z" transform="translate(-7.39 -7.02)"/><path class="cls-1" d="M380.84,538c-2.35,1.08-3.77.6-4.53-2.2-2.15-7.91-4.5-15.76-6.88-23.6-.6-2-.44-3.44,1.79-3.66,3.73-.35,3.75-2.38,2.66-5.13a11.12,11.12,0,0,1-.74-2.38c-.48-3.32-1.83-4.35-5.3-3-4.51,1.74-9.28,2.84-13.95,4.2-7.36,2.15-7.25,2.11-5.05,9.3.8,2.61,1.89,3.52,4.42,2.25a7.91,7.91,0,0,1,1.66-.41c1.78-.06,1.73,1.4,2.07,2.55,2.39,8,4.67,16,7.25,23.9.82,2.51-.08,3.36-2.19,3.68-2.71.4-3.62,1.59-2.42,4.26a19.89,19.89,0,0,1,1.25,4.39c.47,2.31,1.65,2.8,3.85,2.09,4.89-1.57,9.82-3,14.76-4.43,7.71-2.23,7.63-2.18,5.18-9.79C384,537.74,383.06,536.92,380.84,538Z" transform="translate(-7.39 -7.02)"/></svg>