<svg id="Layer_1" data-name="Layer 1" xmlns="http://www.w3.org/2000/svg" viewBox="0 0 980.49 981.69"><defs><style>.cls-1{fill:#16a086;}</style></defs><title>primary-color-logo</title><path class="cls-1" d="M990.13,478.28c0-4.11.06-8.22.09-12.33-.4-8.35-7.28-18.83-20-21-3.25-.56-6.5-1.13-9.7-1.91-12.1-2.95-23.13-8.09-32.44-16.53-14.12-12.79-20.21-29.21-21.46-47.79a.73.73,0,0,1,0-1.24c-.05-3.09-.14-6.18-.14-9.27q0-82.18,0-164.38c0-10,.16-20-.44-30a.69.69,0,0,1-.05-1.23c-.37-4.21-.7-8.42-1.11-12.62a193.47,193.47,0,0,0-8.76-41.62c-9.61-29.17-26.16-53.54-50.4-72.53C827.11,31.34,806.08,22,783.38,16.06c-13.8-3.57-27.86-5.5-42-6.85-.3,0-.61.08-.92.08l-71.57,0c-.72,0-1.43,0-2.15,0l-2.16-.06c-10.23,1.48-17.27,6.82-21.33,16.52-9.69,23.2-19.67,46.28-29.54,69.4Q578.1,178.53,542.51,262l-74,173.44-61.86,145q-31.23,73.22-62.45,146.43L282,872.71c-2.47,5.79-4.92,11.57-7.41,17.34-.43,1-.59,2.33-2.17,2.21-2.24-.17-4.51.23-6.72-.63a22.9,22.9,0,0,0-4.51-1,87.84,87.84,0,0,1-18.14-5c-18.29-7.34-31.23-20-38.29-38.49A89.09,89.09,0,0,1,199.28,815q-.06-94.68,0-189.35a259.61,259.61,0,0,0-1.82-32.38A172.24,172.24,0,0,0,187.33,552a125.55,125.55,0,0,0-33.17-48.59,8,8,0,0,1-2.31-2.43,5.85,5.85,0,0,1,1.71-1.79,119.77,119.77,0,0,0,30.25-39.48c8.84-18.37,13.05-37.9,14.77-58.07a.73.73,0,0,1,.06-1.24c1-12.15.6-24.32.6-36.48q.06-89.25,0-178.51A97.42,97.42,0,0,1,201.73,163c5.47-23.28,19.28-39.43,41.55-48.27a102.62,102.62,0,0,1,20-5.22,23.43,23.43,0,0,0,19.51-22.72c.15-18.15.09-36.3,0-54.44-.05-12.41-11.15-24.11-26.15-22.88-4.51.36-9,1-13.5,1.56a202.58,202.58,0,0,0-49,12.4c-30.71,12.18-55.53,31.66-73.38,59.63-13.41,21-20.78,44.2-24.37,68.72-2.09,14.33-2.53,28.72-2.51,43.17q.09,89.1,0,178.19a99.09,99.09,0,0,1-1.76,19.37C88,413.57,76.44,429.14,57.28,439c-8.72,4.47-18.06,6.84-27.67,8.43-11,1.84-18.47,11.08-19.39,19.48.29,2.15-.43,4.23-.42,6.4.09,14.93,0,29.87,0,44.8,0,4.53-.06,9.06-.09,13.59l.24,2.25a3.11,3.11,0,0,1,.27.55c2.78,10.87,9.79,17,20.79,18.86a90.73,90.73,0,0,1,23.37,6.81c16.17,7.44,27.92,19.14,34.34,35.9,3.77,9.85,5.13,20.14,5.14,30.61q0,91.88,0,183.75c0,9.38.29,18.74,1.22,28.09a202.24,202.24,0,0,0,8.21,41.44c13.35,42.12,39.78,73,79.57,92.32,22.34,10.84,46.19,16.12,70.77,18.52l4.26,0,72.32-.05c1.75,0,3.5.05,5.25.08a22.36,22.36,0,0,0,17.89-14q33.56-77.94,67.06-155.91,46.89-109.07,93.76-218.13,38.52-89.61,77.06-179.21Q624.12,347.19,657,270.79q29.91-69.59,59.81-139.18,4.4-10.23,8.82-20.44c.35-.81.43-2,1.53-2.14a19.86,19.86,0,0,1,5.69-.25,139.75,139.75,0,0,1,18.1,3.86C775.33,120.27,791.41,136,798,161c2.31,8.73,2.91,17.66,2.91,26.66q0,93.9,0,187.82c0,9.59.17,19.16,1,28.73a182,182,0,0,0,6.47,35.5c6.83,23.25,18.5,43.55,36.67,59.86a3.25,3.25,0,0,1,1.15,1.43,7.09,7.09,0,0,1-2,2.27,124.31,124.31,0,0,0-24.88,33.3c-11.5,22.31-16.35,46.29-17.88,71.11a.7.7,0,0,1,0,1.24c-.15,4.63-.43,9.27-.43,13.9q0,94.81,0,189.62a104.21,104.21,0,0,1-2.68,25.75c-5.55,22-18.57,37.78-39.54,46.8-7.15,3.07-14.7,4.61-22.29,6.13a23.7,23.7,0,0,0-19.1,23.45c0,17.53,0,35.06,0,52.58a22,22,0,0,0,1,6.7c2.9,9.32,9.28,14.82,18.72,16.91l9.31,0c4.8-.6,9.61-1.12,14.4-1.81a195.11,195.11,0,0,0,52.73-14.93c33.16-15,58.28-38.41,74.36-71.19,11.57-23.6,16.61-48.81,18.13-74.86-.49-.43-.47-.84,0-1.24.15-4.33.42-8.66.42-13q0-91.29,0-182.57a103.25,103.25,0,0,1,2.05-22.73c4.11-18.35,14-32.56,30.22-42.26,9.52-5.7,19.92-8.88,30.81-10.52,13.45-2,20.62-13,20.76-21.64,0-1.13-.12-2.26-.12-3.39Q990.13,504.48,990.13,478.28Z" transform="translate(-9.75 -9.15)"/></svg>